<svg xmlns="http://www.w3.org/2000/svg" viewBox="0 0 1000 1000"><defs><style>.cls-1,.cls-3{fill:#333;}.cls-2{fill:none;}.cls-2,.cls-3{stroke:#fff;stroke-miterlimit:10;}</style></defs><title>motion</title><g id="bg"><rect class="cls-1" y="-0.3" width="1000" height="1000.3"/></g><g id="base-board"><polyline class="cls-2" points="136.62 523.45 178.58 762.37 514.77 703.32 472.81 464.41"/><rect class="cls-2" x="115.96" y="463.84" width="372.26" height="30.32" transform="translate(-78.3 59.48) rotate(-9.96)"/><line class="cls-2" x1="453.51" y1="437.01" x2="429.47" y2="472.02"/><line class="cls-2" x1="409" y1="444.83" x2="384.96" y2="479.84"/><line class="cls-2" x1="364.48" y1="452.65" x2="340.44" y2="487.65"/><line class="cls-2" x1="319.97" y1="460.46" x2="295.93" y2="495.47"/><line class="cls-2" x1="275.46" y1="468.28" x2="251.42" y2="503.29"/><line class="cls-2" x1="230.94" y1="476.1" x2="206.9" y2="511.11"/><line class="cls-2" x1="186.43" y1="483.92" x2="162.39" y2="518.93"/><line class="cls-2" x1="141.92" y1="491.74" x2="121.24" y2="521.84"/><line class="cls-2" x1="158.65" y1="566.38" x2="466.73" y2="512.27"/><line class="cls-2" x1="169.14" y1="626.11" x2="477.22" y2="572"/><line class="cls-2" x1="261.63" y1="547.67" x2="272.22" y2="608"/><line class="cls-2" x1="364.13" y1="529.67" x2="374.13" y2="590.1"/><line class="cls-2" x1="176.9" y1="670.31" x2="484.98" y2="616.2"/><line class="cls-2" x1="182.15" y1="700.17" x2="490.23" y2="646.06"/><line class="cls-2" x1="187.39" y1="730.03" x2="495.47" y2="675.93"/><line class="cls-2" x1="184.87" y1="715.7" x2="272.73" y2="700.27"/><line class="cls-2" x1="179.63" y1="685.84" x2="253.43" y2="672.87"/><line class="cls-2" x1="171.66" y1="640.44" x2="216.17" y2="632.62"/><line class="cls-2" x1="176.39" y1="578.04" x2="249.02" y2="565.28"/><line class="cls-2" x1="293.53" y1="557.46" x2="336.88" y2="549.85"/><line class="cls-2" x1="395.45" y1="539.57" x2="439.96" y2="531.75"/><line class="cls-2" x1="227.2" y1="523.55" x2="387.68" y2="495.37"/><path class="cls-3" d="M127.32,504.86l-4.89-27.81a14.78,14.78,0,0,1,11.82-17.22L149,457.25a14.52,14.52,0,0,1,13.19,4.5L185,486.41c8,8.66,3.43,22.86-8,24.87L144.29,517A14.76,14.76,0,0,1,127.32,504.86Z"/></g><g id="base-wheel"><circle class="cls-2" cx="743.59" cy="403.29" r="82.52"/><circle class="cls-2" cx="743.59" cy="403.29" r="89.93"/><circle class="cls-2" cx="743.59" cy="403.29" r="102.62"/><circle class="cls-2" cx="743.59" cy="403.29" r="117.43"/></g><g id="spin"><path class="cls-3" d="M735.65,551.23A149.7,149.7,0,1,0,593.32,394.5,149.71,149.71,0,0,0,735.65,551.23ZM625.16,459.87c-17-33.33,3.12-55.29,11.69-53.75l45.79-1.91c23.39-1,37,26.11,22.23,44.29l-28.52,35.13C672.5,491.38,642.88,494.53,625.16,459.87ZM734.7,531.7c-37.37-1.91-46.32-30.34-40.7-37l21.12-40.21c10.84-20.64,40.92-18.95,49.39,2.77l16.37,42C785.66,506.46,773.58,533.68,734.7,531.7Zm117-59c-20.34,31.41-49.44,24.94-52.39,16.75L775,451.72c-12.59-19.59,3.66-44.9,26.7-41.61l45,6.43C855.3,416,872.84,440.08,851.68,472.75ZM859.12,342c17,33.32-3.12,55.28-11.69,53.75L802,398.25c-23.45,1.31-37.4-25.74-22.75-44.09l28.69-36C811.78,310.46,841.4,307.31,859.12,342ZM749.57,270.14c37.38,1.91,46.33,30.34,40.71,37L769.2,347.85c-10.79,20.83-41.12,19.13-49.52-2.77l-16.28-42.5C698.62,295.38,710.7,268.15,749.57,270.14Zm-117,58.95C652.94,297.67,682,304.14,685,312.33l24.29,37.79c12.59,19.58-3.66,44.9-26.71,41.6l-45-6.42C629,385.84,611.44,361.76,632.6,329.09Z"/></g><g id="circle-top_still_" data-name="circle-top(still)"><circle class="cls-2" cx="743.42" cy="400.28" r="16.06"/></g><g id="top-board"><polygon class="cls-2" points="456.35 341.58 117.32 496.44 105 468.77 444.03 313.92 456.35 341.58"/><line class="cls-2" x1="416.95" y1="326.29" x2="402.19" y2="366.32"/><line class="cls-2" x1="375.79" y1="345.09" x2="361.03" y2="385.12"/><line class="cls-2" x1="334.63" y1="363.89" x2="319.87" y2="403.92"/><line class="cls-2" x1="293.47" y1="382.69" x2="278.71" y2="422.72"/><line class="cls-2" x1="252.31" y1="401.49" x2="237.55" y2="441.52"/><line class="cls-2" x1="211.15" y1="420.29" x2="196.39" y2="460.32"/><line class="cls-2" x1="169.99" y1="439.09" x2="155.23" y2="479.12"/><line class="cls-2" x1="128.83" y1="457.89" x2="116.14" y2="492.32"/></g></svg>