<svg xmlns="http://www.w3.org/2000/svg" viewBox="0 0 1000 1000"><defs><style>.cls-1{fill:#333;}.cls-2{fill:none;stroke:#fff;stroke-miterlimit:10;}</style></defs><title>webdev</title><g id="bg"><rect class="cls-1" y="-0.3" width="1000" height="1000.3"/></g><g id="base"><path class="cls-2" d="M375.13,486.66,375.2,329a19.36,19.36,0,0,1,19.4-19.32l455.27.21a19.37,19.37,0,0,1,19.39,19.34l-.15,315.37a19.35,19.35,0,0,1-19.4,19.32l-272.07-.12-56.88,0"/><polyline class="cls-2" points="736.05 674.79 736.03 713.87 538 713.78 538.02 674.7"/><path class="cls-2" d="M538,713.78s-30.62-2-30.64,36.61l259.28.11c0-38.65-30.61-36.63-30.61-36.63"/><polyline class="cls-2" points="429.22 353.01 413.62 368.54 429.21 384.09"/><polyline class="cls-2" points="475.99 353.03 491.57 368.58 475.98 384.11"/><line class="cls-2" x1="432.55" y1="368.55" x2="472.64" y2="368.57"/><polyline class="cls-2" points="429.2 396.96 413.6 412.49 429.19 428.03"/><polyline class="cls-2" points="529.42 397 545 412.55 529.41 428.08"/><line class="cls-2" x1="432.53" y1="412.94" x2="526.07" y2="412.99"/><polyline class="cls-2" points="696.39 554.89 680.79 570.43 696.37 585.97"/><polyline class="cls-2" points="825.56 554.95 841.15 570.5 825.55 586.03"/><line class="cls-2" x1="728.67" y1="570.45" x2="822.21" y2="570.49"/><polyline class="cls-2" points="747.59 613.13 731.99 628.66 747.57 644.21"/><polyline class="cls-2" points="818.86 613.16 834.44 628.71 818.84 644.24"/><line class="cls-2" x1="775.42" y1="628.68" x2="815.51" y2="628.7"/><line class="cls-2" x1="769.86" y1="600.93" x2="756.48" y2="656.42"/><line class="cls-2" x1="722.4" y1="542.8" x2="708.22" y2="598.09"/><path class="cls-2" d="M363.29,494l.08-167.61a27.75,27.75,0,0,1,27.81-27.69l462.12.21a27.75,27.75,0,0,1,27.79,27.72l-.15,320.52a27.76,27.76,0,0,1-27.81,27.7L526,674.7"/></g><g id="cog1"><path class="cls-2" d="M503.13,645.51a124.82,124.82,0,0,0,1.22-17.4,123.42,123.42,0,0,0-1.21-17.4c-10.65-4.68-21.35-9.28-23.26-15.14-2-6.06,3.91-16.15,9.75-26.18a124.85,124.85,0,0,0-20.18-27.65c-11.38,2.44-22.82,4.93-27.94,1.21s-6.17-15.28-7.34-26.83a124.26,124.26,0,0,0-32.54-10.6c-7.77,8.64-15.63,17.33-22.15,17.33s-14.36-8.71-22.13-17.35a124.32,124.32,0,0,0-32.54,10.57c-1.18,11.55-2.3,23.15-7.37,26.82s-16.55,1.22-27.94-1.23a125.18,125.18,0,0,0-20.21,27.63c5.83,10,11.71,20.13,9.73,26.19-1.91,5.86-12.62,10.45-23.27,15.12a124.82,124.82,0,0,0-1.23,17.4,126.48,126.48,0,0,0,1.21,17.4c10.65,4.68,21.36,9.28,23.27,15.13,2,6.07-3.92,16.16-9.76,26.19a124.56,124.56,0,0,0,20.18,27.64c11.39-2.43,22.82-4.92,27.94-1.2s6.18,15.28,7.35,26.83a124.31,124.31,0,0,0,32.53,10.6c7.77-8.64,15.64-17.33,22.15-17.33s14.37,8.71,22.13,17.35A124.2,124.2,0,0,0,434.06,740c1.19-11.55,2.31-23.15,7.38-26.82S458,712,469.37,714.45a124.86,124.86,0,0,0,20.21-27.63c-5.83-10-11.71-20.12-9.73-26.19C481.76,654.77,492.47,650.18,503.13,645.51ZM379.41,687.83a59.78,59.78,0,1,1,60-59.75A59.87,59.87,0,0,1,379.41,687.83Z"/></g><g id="cog_2" data-name="cog 2"><path class="cls-2" d="M245.84,365.55a81.85,81.85,0,0,0-19.4-11.64c-6.17,4.34-12.31,8.73-16.22,7.83s-7.7-7.57-11.34-14.16a82,82,0,0,0-22.17,1.94c-2.44,7.13-4.88,14.29-8.66,15.89s-10.59-1.69-17.42-4.9A80.25,80.25,0,0,0,133.84,375c2.22,7.19,4.44,14.45,2.26,18.06s-9.65,5.05-17.07,6.46a79.57,79.57,0,0,0-5,21.56c6,4.52,12.14,9,12.5,13.05s-4.86,9.58-10,15.07a81,81,0,0,0,8.65,20.43c7.55.12,15.14.24,17.87,3.36s1.6,10.48.65,17.95a81,81,0,0,0,19.4,11.64c6.17-4.33,12.31-8.73,16.22-7.83s7.7,7.57,11.34,14.16A81.54,81.54,0,0,0,212.82,507c2.44-7.12,4.88-14.29,8.66-15.88s10.59,1.68,17.43,4.9a80.79,80.79,0,0,0,16.78-14.48c-2.22-7.2-4.44-14.46-2.26-18.07s9.66-5.05,17.07-6.46a80,80,0,0,0,5-21.56c-6.05-4.51-12.15-9-12.5-13.05s4.85-9.58,10-15.07a80.45,80.45,0,0,0-8.65-20.42c-7.55-.13-15.14-.24-17.86-3.37S244.89,373,245.84,365.55ZM228.1,448.24A38.87,38.87,0,1,1,214.83,395,39,39,0,0,1,228.1,448.24Z"/></g><g id="lines"><line class="cls-2" x1="481.5" y1="472.9" x2="823.38" y2="473.05"/><line class="cls-2" x1="580.6" y1="501.8" x2="824.48" y2="501.91"/><line class="cls-2" x1="538.27" y1="530.63" x2="825.57" y2="530.76"/></g><g id="circles"><ellipse class="cls-2" cx="838.28" cy="347.67" rx="16.33" ry="16.28"/><ellipse class="cls-2" cx="795.4" cy="347.65" rx="16.33" ry="16.28"/><ellipse class="cls-2" cx="752.53" cy="347.63" rx="16.33" ry="16.28"/></g></svg>