<svg xmlns="http://www.w3.org/2000/svg" viewBox="0 0 250 250"><defs><style>.cls-1{fill:#333;}.cls-2{fill:#f2f2f2;}</style></defs><title>weblink</title><g id="Layer_1" data-name="Layer 1"><rect class="cls-1" x="0.1" y="0.24" width="250" height="250"/></g><g id="Layer_3" data-name="Layer 3"><path class="cls-2" d="M238.67,61.24s-2.25-22.07-9.2-31.77c-8.82-12.71-18.7-12.71-23.21-13.55-32.48-3.21-81.16-3.21-81.16-3.21H125s-48.69,0-81.14,3.23c-4.52.82-14.39.82-23.18,13.53-6.94,9.72-9.2,31.79-9.2,31.79q-2.18,25.8-2.32,51.79V137.3q.15,26,2.32,51.83s2.2,22.05,9.2,31.75c8.85,12.75,20.44,12.35,25.58,13.67,18.55,2.45,78.92,3.21,78.92,3.21s48.73-.11,81.21-3.33c4.47-.74,14.4-.8,23.21-13.55,7-9.72,9.21-31.77,9.21-31.77q2.13-25.8,2.24-51.81V113.05Q240.89,87.09,238.67,61.24Z"/></g><g id="Layer_2" data-name="Layer 2"><path class="cls-1" d="M95.47,159.64l-17.7-13.77a44.24,44.24,0,0,0-15-7.68A2.07,2.07,0,0,1,61,136c0-.78,0-1.95.17-3.49s.18-2.7.18-3.49-.06-1.68-.18-3.07-.17-2.43-.17-3.14a2.27,2.27,0,0,1,1.75-2.17q5.34-2,15.24-8a86.49,86.49,0,0,0,8.26-5.92q7.32-5.74,8-6.21a5.38,5.38,0,0,1,1.46-.82q1.41.58,4,6,2.52,5.16,2.52,7a3.21,3.21,0,0,1-.82,1.64,41.34,41.34,0,0,1-21.86,13.83,2.24,2.24,0,0,0-1.17.76,2,2,0,0,0,1,.82q16.75,6.86,22.09,14.35a3.67,3.67,0,0,1,.82,1.82c0,1.13-.93,3.67-2.81,7.62S96.29,159.64,95.47,159.64Z"/><path class="cls-1" d="M119.38,171.07a2.23,2.23,0,0,1-.83-.24q-4.74-1.7-11-4.33a1.07,1.07,0,0,1-.41-1,5.73,5.73,0,0,1,.17-1.29q8.15-28,11.9-42.6l7.32-28.42q.83-3.91,2.76-11.66c.23-.85.64-1.28,1.23-1.28q1.81,0,6.85,2c3.6,1.44,5.39,2.62,5.39,3.51q0,.52-5.33,19.63-5.85,20.93-6.27,22.38-2.22,8.74-7,27.78-1,4.86-3.57,14.24Q120.19,171.07,119.38,171.07Z"/><path class="cls-1" d="M189.16,136a2.27,2.27,0,0,1-1.82,2.16q-5.33,2-15.23,8-3.41,2.11-8.26,5.86-7.28,5.8-8,6.27a5.07,5.07,0,0,1-1.47.82q-1.23-.53-3.66-5.45t-2.43-6.39a3,3,0,0,1,.88-1.69q9.44-11.61,21.33-14.89a2.47,2.47,0,0,0,1.23-.76,2.45,2.45,0,0,0-1.12-.82q-16-6.61-21.91-15a3.12,3.12,0,0,1-.82-1.76q0-1.45,2.87-7.32t3.87-5.86L172.34,113a44.21,44.21,0,0,0,15,7.67,2.12,2.12,0,0,1,1.82,2.17c0,.79-.06,2-.18,3.49s-.17,2.71-.17,3.49.06,1.69.17,3.07S189.16,135.32,189.16,136Z"/></g></svg>