<?xml version="1.0" encoding="UTF-8"?><svg xmlns="http://www.w3.org/2000/svg" viewBox="0 0 250 250"><defs><style>.d{fill:#333;}</style></defs><g id="a"/><g id="b"><g><path class="d" d="M160.95,104.25h-33V39.66h33c17.81,0,32.29,14.48,32.29,32.29s-14.48,32.3-32.29,32.3Zm-22.42-10.58h22.42c11.97,0,21.71-9.75,21.71-21.71s-9.75-21.71-21.71-21.71h-22.42v43.43Zm0,10.58h-32.99c-17.81,0-32.29-14.48-32.29-32.29s14.48-32.3,32.29-32.3h33V104.25h0Zm-32.99-54.01c-11.97,0-21.71,9.75-21.71,21.71s9.74,21.72,21.71,21.72h22.42V50.24h-22.42Zm32.99,108.02h-32.99c-17.81,0-32.29-14.48-32.29-32.29s14.48-32.29,32.29-32.29h33v64.58h0Zm-32.99-54.01c-11.97,0-21.71,9.75-21.71,21.71s9.75,21.71,21.71,21.71h22.42v-43.43h-22.42Zm.17,108.02c-17.9,0-32.47-14.48-32.47-32.29s14.48-32.29,32.29-32.29h33v31.94c0,18-14.72,32.64-32.82,32.64Zm-.17-54.01c-11.99,.02-21.7,9.73-21.71,21.71,0,11.97,9.82,21.71,21.89,21.71s22.25-9.9,22.25-22.07v-21.36h-22.42Zm55.41,0h-.7c-17.81,0-32.29-14.48-32.29-32.29s14.48-32.29,32.29-32.29h.7c17.81,0,32.29,14.48,32.29,32.29s-14.48,32.29-32.29,32.29Zm-.7-54.01c-11.97,0-21.71,9.75-21.71,21.71s9.75,21.71,21.71,21.71h.7c11.97,0,21.71-9.75,21.71-21.71s-9.75-21.71-21.71-21.71h-.7Z"/><path class="d" d="M105.71,216.27c-20.11,0-36.47-16.28-36.47-36.29,0-10.72,4.67-20.36,12.08-27.01-7.4-6.65-12.07-16.29-12.07-27s4.67-20.35,12.07-27c-7.4-6.65-12.07-16.29-12.07-27,0-20.02,16.28-36.3,36.29-36.3h55.41c20.01,0,36.29,16.28,36.29,36.29,0,10.71-4.66,20.36-12.07,27.01,7.41,6.65,12.07,16.29,12.07,27,0,20.01-16.28,36.29-36.29,36.29h-.71c-6.42,0-12.47-1.68-17.71-4.62v21.99c0,20.21-16.52,36.64-36.82,36.64Zm-17.67-58.52c-6.57,5.19-10.8,13.22-10.8,22.22,0,15.6,12.77,28.29,28.47,28.29s28.82-12.85,28.82-28.64v-17.37h-2.57v17.36c0,14.37-11.77,26.07-26.25,26.07s-25.89-11.54-25.89-25.71c.01-8.61,4.28-16.25,10.8-20.92-.88-.4-1.75-.83-2.59-1.3Zm17.5,4.5c-9.76,.01-17.71,7.96-17.72,17.72,0,9.76,8.03,17.71,17.89,17.71s18.25-8.1,18.25-18.07v-17.36h-18.42Zm36.99-14.24c4.85,3.9,11.01,6.24,17.71,6.24h.71c15.6,0,28.29-12.69,28.29-28.29,0-9-4.22-17.03-10.79-22.22-.84,.46-1.69,.89-2.57,1.29,6.53,4.67,10.79,12.31,10.79,20.93,0,14.18-11.54,25.71-25.71,25.71h-.71c-6.86,0-13.1-2.7-17.71-7.09v3.43Zm-10.57,6.24h2.57v-2.57h-29c-2.94,0-5.77,.45-8.44,1.29,2.67,.84,5.51,1.29,8.45,1.29h26.42Zm-43.92-50.51c-6.57,5.19-10.79,13.22-10.79,22.22s4.22,17.03,10.8,22.22c.84-.46,1.7-.89,2.57-1.29-6.53-4.67-10.79-12.31-10.79-20.93s4.26-16.26,10.79-20.93c-.88-.4-1.73-.83-2.57-1.29Zm54.5,22.22c0,9.77,7.95,17.71,17.71,17.71h.71c9.77,0,17.71-7.95,17.71-17.71s-7.95-17.71-17.71-17.71h-.71c-9.77,0-17.71,7.95-17.71,17.71Zm-37-17.71c-9.77,0-17.71,7.95-17.71,17.71s7.95,17.71,17.71,17.71h18.42v-16.95c0-.25,0-.5,0-.76s0-.51,0-.76v-16.95h-18.42Zm26.42,18.38c.09,3.97,1.01,7.74,2.58,11.15v-23.63c-1.57,3.41-2.49,7.18-2.58,11.15v1.34Zm28.29-26.38h.7c2.94,0,5.78-.45,8.45-1.29-2.67-.84-5.51-1.29-8.45-1.29h-.71c-4.21,0-8.21,.92-11.8,2.58h11.81Zm-28.29,0h2.58v-2.58h-2.59v2.58Zm-26.41,0h18.41v-2.58h-18.41c-2.94,0-5.78,.45-8.46,1.29,2.67,.84,5.51,1.29,8.46,1.29Zm0-56.59c-15.6,0-28.29,12.7-28.29,28.3,0,9,4.22,17.03,10.79,22.22,.84-.46,1.7-.89,2.57-1.29-6.53-4.67-10.79-12.31-10.79-20.93,0-14.18,11.54-25.71,25.71-25.71h18.41v-2.58h-18.41Zm70.33,49.23c.88,.4,1.73,.83,2.57,1.29,6.57-5.19,10.79-13.22,10.79-22.22,0-15.6-12.69-28.29-28.29-28.29h-18.41v2.59h18.41c14.18,0,25.71,11.54,25.71,25.71,0,8.62-4.26,16.26-10.79,20.93Zm-15.63-3.21h.71c9.77,0,17.71-7.95,17.71-17.71s-7.95-17.71-17.71-17.71h-18.41v35.43h17.71Zm-28.29,0h2.57V43.66h-2.58v46.01Zm-26.41,0h18.41V54.24h-18.41c-9.77,0-17.71,7.95-17.71,17.71s7.95,17.72,17.71,17.72Z"/></g></g><g id="c"/></svg>