<svg id="Layer_1" data-name="Layer 1" xmlns="http://www.w3.org/2000/svg" viewBox="0 0 250 250"><defs><style>.cls-1{fill:#333;}.cls-2{fill:#f2f2f2;}</style></defs><title>behance</title><rect class="cls-1" x="-0.14" y="0.14" width="250" height="250"/><path class="cls-2" d="M118.38,122.7a22,22,0,0,0,7-5.21q4.23-5.08,4.24-13.48a23.3,23.3,0,0,0-4.21-14q-7-9.5-23.73-9.75H57.42v91.56H98.68a63.3,63.3,0,0,0,12.94-1.24,25.28,25.28,0,0,0,16.83-11.8,26.76,26.76,0,0,0,4.07-14.6A24.31,24.31,0,0,0,129,130.78,20.47,20.47,0,0,0,118.38,122.7ZM75.68,96.18H95.6a34.53,34.53,0,0,1,10.82,1.43c3.29,1.37,4.92,4.18,4.92,8.45q0,5.77-3.72,8a18.28,18.28,0,0,1-9.68,2.27H75.68Zm31.51,58.15c-2.21,1.07-5.31,1.61-9.27,1.61H75.68V131.53H98.22a23.15,23.15,0,0,1,9.15,1.55q5.84,2.67,5.83,9.81Q113.2,151.34,107.19,154.33Z"/><path class="cls-2" d="M204.26,129.52a33.27,33.27,0,0,0-5.4-14,27.51,27.51,0,0,0-11.7-10,38.61,38.61,0,0,0-15.92-3.17q-14.88,0-24.21,9.39t-9.33,27q0,18.78,10.33,27.11a36.88,36.88,0,0,0,23.85,8.33q16.38,0,25.47-9.88,5.86-6.21,6.57-12.23H185.84a13.76,13.76,0,0,1-13.47,7.76,17.94,17.94,0,0,1-9.76-2.55q-6.68-4.1-7.08-14.29h49.31A87,87,0,0,0,204.26,129.52ZM156,131.28a18.39,18.39,0,0,1,4.72-10.48q3.75-3.87,10.56-3.87a15.55,15.55,0,0,1,10.51,3.65q4.23,3.65,4.71,10.7Z"/><rect class="cls-2" x="150.19" y="85.54" width="39.79" height="9.24"/></svg>