<svg id="Layer_1" data-name="Layer 1" xmlns="http://www.w3.org/2000/svg" viewBox="0 0 250 250"><defs><style>.cls-1{fill:#333;}.cls-2{fill:#f2f2f2;}</style></defs><title>dribbble</title><rect class="cls-1" width="250" height="250"/><path class="cls-2" d="M126.78,45.79A79.21,79.21,0,1,0,206,125,79.21,79.21,0,0,0,126.78,45.79Zm49.93,37A65.17,65.17,0,0,1,192,121.31q-25.5-4.17-46.88-.48c-1.61-3.72-3.28-7.42-5.07-11.09C155.33,103.14,167.58,94.17,176.71,82.8ZM126.78,59.57a65.05,65.05,0,0,1,39.89,13.68q-11.92,15.38-32.91,24.28a303.68,303.68,0,0,0-23-35.88A65,65,0,0,1,126.78,59.57ZM97.26,66.69a294,294,0,0,1,23.35,35.51c-16,4.73-35.19,7.15-57.33,7.31A65.62,65.62,0,0,1,97.26,66.69ZM61.35,125c0-.57.08-1.12.09-1.69q38.1-.06,65.67-8.73,2.31,4.71,4.42,9.46-33.45,10.45-55,42.77A65.14,65.14,0,0,1,61.35,125Zm65.43,65.43a65,65,0,0,1-40.15-13.88c13-20.39,29.59-33.65,50.14-39.78A258.55,258.55,0,0,1,150.26,186,65,65,0,0,1,126.78,190.43Zm36.32-11a271.53,271.53,0,0,0-12.67-45.52q18.57-2.62,40.91,1.29A65.44,65.44,0,0,1,163.1,179.39Z"/></svg>