<svg xmlns="http://www.w3.org/2000/svg" viewBox="0 0 250 250"><defs><style>.cls-1{fill:#333;}.cls-2{fill:#f2f2f2;}</style></defs><title>figma</title><g id="Layer_2" data-name="Layer 2"><rect class="cls-1" x="0.37" y="-0.46" width="250" height="250"/></g><g id="Layer_3" data-name="Layer 3"><path class="cls-2" d="M238.94,60.54s-2.25-22.07-9.21-31.76c-8.81-12.71-18.7-12.71-23.21-13.56C174,12,125.37,12,125.37,12h-.11s-48.69,0-81.13,3.23c-4.53.83-14.4.83-23.19,13.54-6.93,9.71-9.2,31.78-9.2,31.78q-2.18,25.8-2.32,51.79v24.26q.15,26,2.32,51.82s2.21,22,9.2,31.75c8.85,12.75,20.45,12.36,25.59,13.68,18.55,2.44,78.91,3.21,78.91,3.21s48.74-.12,81.21-3.33c4.47-.75,14.4-.81,23.22-13.56,6.95-9.72,9.2-31.77,9.2-31.77q2.15-25.8,2.25-51.8V112.35Q241.14,86.39,238.94,60.54Z"/></g><g id="Layer_1" data-name="Layer 1"><g id="path0_fill" data-name="path0 fill"><path class="cls-1" d="M103.93,194.66a27.25,27.25,0,1,1,0-54.49h27.24v27.25A27.27,27.27,0,0,1,103.93,194.66Zm0-42.88a15.64,15.64,0,1,0,15.63,15.64V151.78Z"/><path class="cls-1" d="M103.93,196.16a28.75,28.75,0,1,1,0-57.49h28.74v28.75A28.77,28.77,0,0,1,103.93,196.16Zm0-54.49a25.75,25.75,0,1,0,25.74,25.75V141.67Zm0,42.88a17.14,17.14,0,0,1,0-34.27h17.13v17.14A17.15,17.15,0,0,1,103.93,184.55Zm0-31.27a14.14,14.14,0,1,0,14.13,14.14V153.28Z"/></g><g id="path1_fill" data-name="path1 fill"><path class="cls-1" d="M131.17,151.78H103.93a27.25,27.25,0,1,1,0-54.49h27.24Zm-27.24-42.87a15.63,15.63,0,0,0,0,31.26h15.63V108.91Z"/><path class="cls-1" d="M132.67,153.28H103.93a28.75,28.75,0,1,1,0-57.49h28.74ZM103.93,98.79a25.75,25.75,0,1,0,0,51.49h25.74V98.79Zm17.13,42.88H103.93a17.13,17.13,0,0,1,0-34.26h17.13Zm-17.13-31.26a14.13,14.13,0,0,0,0,28.26h14.13V110.41Z"/></g><g id="path1_fill-2" data-name="path1 fill"><path class="cls-1" d="M131.17,108.91H103.93a27.25,27.25,0,0,1,0-54.5h27.24ZM103.93,66a15.63,15.63,0,0,0,0,31.26h15.63V66Z"/><path class="cls-1" d="M132.67,110.41H103.93a28.75,28.75,0,1,1,0-57.49h28.74ZM103.93,55.92a25.75,25.75,0,1,0,0,51.49h25.74V55.92Zm17.13,42.87H103.93a17.13,17.13,0,0,1,0-34.26h17.13ZM103.93,67.53a14.13,14.13,0,0,0,0,28.26h14.13V67.53Z"/></g><g id="path2_fill" data-name="path2 fill"><path class="cls-1" d="M146.81,108.91H119.56V54.41h27.25a27.25,27.25,0,0,1,0,54.5ZM131.17,97.29h15.64a15.63,15.63,0,0,0,0-31.26H131.17Z"/><path class="cls-1" d="M146.81,110.41H118.06V52.92h28.75a28.75,28.75,0,0,1,0,57.49Zm-25.75-3h25.75a25.75,25.75,0,0,0,0-51.49H121.06Zm25.75-8.62H129.67V64.53h17.14a17.13,17.13,0,0,1,0,34.26Zm-14.14-3h14.14a14.13,14.13,0,0,0,0-28.26H132.67Z"/></g><g id="path3_fill" data-name="path3 fill"><path class="cls-1" d="M146.81,151.78a27.25,27.25,0,1,1,27.24-27.24A27.27,27.27,0,0,1,146.81,151.78Zm0-42.87a15.63,15.63,0,1,0,15.63,15.63A15.65,15.65,0,0,0,146.81,108.91Z"/><path class="cls-1" d="M146.81,153.28a28.75,28.75,0,1,1,28.74-28.74A28.78,28.78,0,0,1,146.81,153.28Zm0-54.49a25.75,25.75,0,1,0,25.74,25.75A25.78,25.78,0,0,0,146.81,98.79Zm0,42.88a17.13,17.13,0,1,1,17.13-17.13A17.16,17.16,0,0,1,146.81,141.67Zm0-31.26a14.13,14.13,0,1,0,14.13,14.13A14.15,14.15,0,0,0,146.81,110.41Z"/></g></g></svg>