<svg id="Layer_1" data-name="Layer 1" xmlns="http://www.w3.org/2000/svg" viewBox="0 0 250 250"><defs><style>.cls-1{fill:#333;}.cls-2{fill:#f2f2f2;}</style></defs><title>instagram</title><rect class="cls-1" width="250" height="250"/><circle class="cls-2" cx="162.48" cy="88.54" r="8.2" transform="translate(17.87 203.98) rotate(-67.19)"/><path class="cls-2" d="M126,89.92A35.08,35.08,0,1,0,161.1,125,35.09,35.09,0,0,0,126,89.92Zm0,57.85A22.77,22.77,0,1,1,148.79,125,22.77,22.77,0,0,1,126,147.77Z"/><path class="cls-2" d="M193.92,96.84a50.13,50.13,0,0,0-3.18-16.59,35,35,0,0,0-20-20,50.08,50.08,0,0,0-16.59-3.18c-7.28-.33-9.61-.41-28.16-.41s-20.88.08-28.16.41a50,50,0,0,0-16.58,3.18,35,35,0,0,0-20,20,50.13,50.13,0,0,0-3.18,16.59c-.33,7.28-.41,9.61-.41,28.16s.08,20.88.41,28.16a50,50,0,0,0,3.18,16.58,34.94,34.94,0,0,0,20,20,50,50,0,0,0,16.58,3.18c7.28.33,9.61.41,28.16.41s20.88-.08,28.16-.41a50.08,50.08,0,0,0,16.59-3.18,35,35,0,0,0,20-20,50,50,0,0,0,3.18-16.58c.33-7.28.41-9.61.41-28.16S194.25,104.12,193.92,96.84Zm-12.3,55.76c-.3,6.66-1.41,10.28-2.35,12.69a22.64,22.64,0,0,1-13,13c-2.41.94-6,2.05-12.69,2.35-7.2.33-9.36.4-27.6.4s-20.4-.07-27.6-.4c-6.66-.3-10.28-1.41-12.69-2.35a22.64,22.64,0,0,1-13-13c-.93-2.41-2-6-2.35-12.69-.33-7.2-.4-9.36-.4-27.6s.07-20.4.4-27.6c.3-6.66,1.42-10.28,2.35-12.69a22.64,22.64,0,0,1,13-13c2.41-.94,6-2,12.69-2.35,7.2-.33,9.36-.4,27.6-.4s20.4.07,27.6.4c6.66.3,10.28,1.41,12.69,2.35a22.64,22.64,0,0,1,13,13c.94,2.41,2,6,2.35,12.69.33,7.2.4,9.36.4,27.6S182,145.4,181.62,152.6Z"/></svg>