<svg xmlns="http://www.w3.org/2000/svg" viewBox="0 0 850 400"><defs><style>.cls-1{fill:#333;}.cls-2{fill:#5da387;}.cls-3{fill:#f9c5a6;}.cls-4{fill:none;stroke:#f9c5a6;stroke-miterlimit:10;stroke-width:2px;}</style></defs><title>logo-banner</title><g id="Layer_2" data-name="Layer 2"><rect class="cls-1" x="339.34" y="152.09" width="27.98" height="121.26"/><rect class="cls-2" x="483.92" y="152.28" width="27.98" height="121.64"/><polyline class="cls-1" points="437.66 212.72 437.66 273.54 376.84 273.54"/><polyline class="cls-1" points="376.84 212.72 376.84 151.91 437.66 151.91"/><circle class="cls-2" cx="407.06" cy="212.72" r="11.57"/><rect class="cls-3" x="446.61" y="212.72" width="27.98" height="60.45"/><rect class="cls-3" x="446.61" y="175.41" width="27.98" height="27.98"/><circle class="cls-4" cx="425.62" cy="212.91" r="137.53"/></g><g id="Layer_3" data-name="Layer 3"><path d="M280.74,176.56a10,10,0,0,1-.87,2.35,5.56,5.56,0,0,1-1.23,1.54,3.68,3.68,0,0,1-1.51.77,4.46,4.46,0,0,1-1.75,0l.25-1a3.5,3.5,0,0,0,1.59-.2,3.16,3.16,0,0,0,1.18-.78,4.5,4.5,0,0,0,.82-1.26,8.36,8.36,0,0,0,.55-1.6,6.6,6.6,0,0,0,.22-1.69,3.9,3.9,0,0,0-.22-1.37,2.48,2.48,0,0,0-.65-1,2.32,2.32,0,0,0-1-.55,2.26,2.26,0,0,0-1.15,0,2,2,0,0,0-1,.6,6.1,6.1,0,0,0-1,1.33c-.33.56-.69,1.28-1.1,2.14a12.78,12.78,0,0,1-1,1.78,5.4,5.4,0,0,1-1,1.15,2.74,2.74,0,0,1-1.13.54,3,3,0,0,1-1.29,0,3.12,3.12,0,0,1-1.3-.68,3.31,3.31,0,0,1-.85-1.22,5.26,5.26,0,0,1-.33-1.66,7,7,0,0,1,.23-2,8,8,0,0,1,.7-1.86,5.18,5.18,0,0,1,1.05-1.35,3.73,3.73,0,0,1,1.33-.8,3.62,3.62,0,0,1,1.55-.16l-.24,1a3.08,3.08,0,0,0-1.08.2,3.27,3.27,0,0,0-1,.61,4.4,4.4,0,0,0-.8,1,6.1,6.1,0,0,0-.56,1.5,5,5,0,0,0-.05,2.93,2.07,2.07,0,0,0,1.52,1.37,2.3,2.3,0,0,0,.93.05,1.93,1.93,0,0,0,.83-.42,4.44,4.44,0,0,0,.81-1,14.7,14.7,0,0,0,.85-1.59l.56-1.17c.19-.4.39-.79.61-1.16a8,8,0,0,1,.72-1,3.87,3.87,0,0,1,.88-.8,2.85,2.85,0,0,1,1.07-.42,3.12,3.12,0,0,1,1.31.06,3.33,3.33,0,0,1,1.43.75,3.83,3.83,0,0,1,.94,1.32,5,5,0,0,1,.4,1.75A6.5,6.5,0,0,1,280.74,176.56Z"/><path d="M275.71,151.18l-1.71,4.6,11.62,4.32-.36,1-11.61-4.32-1.7,4.55L271,161l3.76-10.11Z"/><path d="M292.72,144.62a7.8,7.8,0,0,1-1.2,1.8,4.61,4.61,0,0,1-1.28,1,3.56,3.56,0,0,1-1.31.38,4.94,4.94,0,0,1-1.33-.09,6.35,6.35,0,0,1-1.3-.42c-.42-.18-.83-.37-1.22-.57l-6.91-3.54.47-.92,6.87,3.53a9,9,0,0,0,2.34.87,3.37,3.37,0,0,0,1.72-.07,3,3,0,0,0,1.27-.87,7.84,7.84,0,0,0,1-1.55,8.13,8.13,0,0,0,.68-1.75,2.81,2.81,0,0,0,0-1.55,3.36,3.36,0,0,0-.95-1.41,8.68,8.68,0,0,0-2.08-1.38l-6.87-3.53.46-.91,6.91,3.54a11.6,11.6,0,0,1,2.09,1.34,4.54,4.54,0,0,1,1.25,1.59,3.8,3.8,0,0,1,.27,2A7.27,7.27,0,0,1,292.72,144.62Z"/><path d="M299.78,119.74q5.61,3.83,1.61,9.68l-2.39,3.5-11-7.52,2.39-3.51a7.6,7.6,0,0,1,4.34-3.47A6.41,6.41,0,0,1,299.78,119.74Zm-.61.9a9.11,9.11,0,0,0-2.11-1.1,4.05,4.05,0,0,0-2-.2,4.32,4.32,0,0,0-1.95.91,9.57,9.57,0,0,0-2,2.21l-1.8,2.63,9.43,6.44,1.8-2.64a9.22,9.22,0,0,0,1.32-2.63,4.27,4.27,0,0,0,.1-2.17,4.14,4.14,0,0,0-1-1.84A9.8,9.8,0,0,0,299.17,120.64Z"/><path d="M311,116.66l-.66.79-10.27-8.55.66-.79Z"/><path d="M311.17,96.43a7.16,7.16,0,0,1,2.23-1.51,6.28,6.28,0,0,1,2.47-.48,6.43,6.43,0,0,1,2.5.59,8.48,8.48,0,0,1,4,4,6.36,6.36,0,0,1,.57,2.52,6,6,0,0,1-.49,2.49,7.37,7.37,0,0,1-3.81,3.75,6.21,6.21,0,0,1-2.49.46,6.56,6.56,0,0,1-2.52-.61,8.52,8.52,0,0,1-4-4.06,6.09,6.09,0,0,1,0-5A7.13,7.13,0,0,1,311.17,96.43Zm9,9.2a6.21,6.21,0,0,0,1.31-1.85,4.92,4.92,0,0,0,.44-2.06,5.52,5.52,0,0,0-.5-2.16,7.44,7.44,0,0,0-1.5-2.1,7.23,7.23,0,0,0-2.07-1.52,5.57,5.57,0,0,0-2.12-.51,4.85,4.85,0,0,0-2,.42,6.11,6.11,0,0,0-1.84,1.26A6.19,6.19,0,0,0,310.55,99a4.92,4.92,0,0,0-.45,2.05,5.18,5.18,0,0,0,.46,2.13,7.16,7.16,0,0,0,1.48,2.1,7.52,7.52,0,0,0,2.08,1.52,5.29,5.29,0,0,0,2.14.54,4.81,4.81,0,0,0,2.07-.4A6.1,6.1,0,0,0,320.19,105.63Z"/><path d="M353,81.81l-1.17.71-8.58-3.31L342.2,83l2.43,4-.87.54-7-11.41.88-.54,3.83,6.28,3-10.42,1.21-.75-2.14,7.58Z"/><path d="M369.07,74.07l-1.12.51L364.6,71.4l-6.28,2.89c.06.71.11,1.48.16,2.28s.1,1.58.15,2.31l-1,.45c-.07-1.24-.13-2.46-.18-3.65s-.11-2.38-.17-3.56-.11-2.37-.16-3.56-.11-2.41-.18-3.64l1.32-.61ZM364,70.82l-6.07-5.39.3,8Z"/><path d="M383.45,62.06a1.37,1.37,0,0,1,0-.57,1.42,1.42,0,0,1,.2-.53,1.92,1.92,0,0,1,.38-.43,1.64,1.64,0,0,1,.53-.26,1.49,1.49,0,0,1,.59,0,1.38,1.38,0,0,1,.54.18,1.61,1.61,0,0,1,.43.35,1.24,1.24,0,0,1,.26.51,1.19,1.19,0,0,1,0,.56,1.52,1.52,0,0,1-.19.54,1.55,1.55,0,0,1-.38.43,1.46,1.46,0,0,1-.53.26,1.32,1.32,0,0,1-.59,0,1.47,1.47,0,0,1-.55-.17,1.51,1.51,0,0,1-.44-.36A1.37,1.37,0,0,1,383.45,62.06Z"/><path d="M403.36,64.68l-1,.16-2.07-13.21,1-.16Z"/><path d="M420.06,63l-8.25.58-.93-13.34,1-.07.87,12.36L420,62Z"/></g></svg>