<svg xmlns="http://www.w3.org/2000/svg" viewBox="0 0 1000 1000"><defs><style>.cls-1{fill:#333;}.cls-2{fill:none;stroke:#fff;stroke-miterlimit:10;stroke-width:0.75px;}</style></defs><title>packaging</title><g id="bg"><rect class="cls-1" y="-0.3" width="1000" height="1000.3"/></g><g id="base"><rect class="cls-2" x="137.69" y="222.71" width="400.4" height="245.65"/><line class="cls-2" x1="154.89" y1="222.43" x2="154.89" y2="468.08"/><line class="cls-2" x1="169.63" y1="222.43" x2="169.63" y2="468.08"/><line class="cls-2" x1="184.37" y1="468.08" x2="184.37" y2="222.43"/><rect class="cls-2" x="216.3" y="253.36" width="275.12" height="184.23"/><polyline class="cls-2" points="216.3 405.66 323.16 328.9 321.93 253.36"/><line class="cls-2" x1="339.12" y1="437.6" x2="338.51" y2="328.9"/><polyline class="cls-2" points="368.6 437.6 369.21 328.9 353.86 298.19"/><polyline class="cls-2" points="444.75 437.6 383.34 405.66 384.57 328.9 415.27 298.19"/><line class="cls-2" x1="383.34" y1="390.93" x2="445.98" y2="328.9"/><line class="cls-2" x1="412.82" y1="420.4" x2="492.04" y2="344.25"/><circle class="cls-2" cx="464.4" cy="410.58" r="27.02"/><circle class="cls-2" cx="269.11" cy="291.44" r="38.08"/><circle class="cls-2" cx="269.11" cy="291.44" r="23.34"/><line class="cls-2" x1="323.16" y1="282.84" x2="492.04" y2="282.84"/><line class="cls-2" x1="323.16" y1="268.1" x2="492.04" y2="268.1"/><line class="cls-2" x1="323.16" y1="298.19" x2="492.04" y2="298.19"/><path class="cls-2" d="M338.51,298.19s15.35,30.1,15.35,30.71V437.6"/><line class="cls-2" x1="399.92" y1="328.9" x2="430.63" y2="298.19"/><line class="cls-2" x1="445.98" y1="298.19" x2="476.69" y2="328.9"/><line class="cls-2" x1="492.04" y1="328.9" x2="216.3" y2="329.51"/><line class="cls-2" x1="461.33" y1="298.19" x2="492.04" y2="328.9"/><line class="cls-2" x1="339.12" y1="437.6" x2="231.04" y2="328.9"/><line class="cls-2" x1="246.39" y1="328.9" x2="339.12" y2="420.4"/><circle class="cls-2" cx="265.45" cy="407.19" r="18.25"/><circle class="cls-2" cx="265.45" cy="407.19" r="28.48"/><line class="cls-2" x1="529.39" y1="222.71" x2="529.39" y2="468.59"/><rect class="cls-2" x="474.6" y="525.66" width="400.4" height="245.65" transform="translate(1349.6 1296.97) rotate(180)"/><line class="cls-2" x1="857.8" y1="771.59" x2="857.8" y2="525.94"/><line class="cls-2" x1="843.07" y1="771.59" x2="843.07" y2="525.94"/><line class="cls-2" x1="828.33" y1="525.94" x2="828.33" y2="771.59"/><rect class="cls-2" x="521.27" y="556.42" width="275.12" height="184.23" transform="translate(1317.66 1297.07) rotate(180)"/><polyline class="cls-2" points="796.39 588.35 689.54 665.12 690.76 740.65"/><line class="cls-2" x1="673.57" y1="556.42" x2="674.18" y2="665.12"/><polyline class="cls-2" points="644.09 556.42 643.48 665.12 658.83 695.82"/><polyline class="cls-2" points="567.94 556.42 629.35 588.35 628.13 665.12 597.42 695.82"/><line class="cls-2" x1="629.35" y1="603.09" x2="566.71" y2="665.12"/><line class="cls-2" x1="599.88" y1="573.61" x2="520.66" y2="649.76"/><circle class="cls-2" cx="548.29" cy="583.44" r="27.02"/><circle class="cls-2" cx="743.58" cy="702.58" r="38.08"/><circle class="cls-2" cx="743.58" cy="702.58" r="23.34"/><line class="cls-2" x1="689.54" y1="711.17" x2="520.66" y2="711.17"/><line class="cls-2" x1="689.54" y1="725.91" x2="520.66" y2="725.91"/><line class="cls-2" x1="689.54" y1="695.82" x2="520.66" y2="695.82"/><path class="cls-2" d="M674.18,695.82s-15.35-30.09-15.35-30.7V556.42"/><line class="cls-2" x1="612.77" y1="665.12" x2="582.07" y2="695.82"/><line class="cls-2" x1="566.71" y1="695.82" x2="536.01" y2="665.12"/><line class="cls-2" x1="520.66" y1="665.12" x2="796.39" y2="664.5"/><line class="cls-2" x1="551.36" y1="695.82" x2="520.66" y2="665.12"/><line class="cls-2" x1="673.57" y1="556.42" x2="781.65" y2="665.12"/><line class="cls-2" x1="766.3" y1="665.12" x2="673.57" y2="573.61"/><circle class="cls-2" cx="747.24" cy="586.82" r="18.25"/><circle class="cls-2" cx="747.24" cy="586.82" r="28.48"/><line class="cls-2" x1="483.31" y1="771.31" x2="483.31" y2="525.43"/></g><g id="box1"><polyline class="cls-2" points="537.87 225.07 648 225.01 648 465 537.87 464.85"/><polyline class="cls-2" points="538.03 228.9 644.38 228.9 644.38 461.12 538.03 461.12"/></g><g id="box2"><polyline class="cls-2" points="474.82 768.94 364.69 769 364.69 529.01 474.82 529.17"/><polyline class="cls-2" points="474.67 765.12 368.31 765.12 368.31 532.9 474.67 532.9"/></g><g id="ribbobn2"><path class="cls-2" d="M364.5,662.5s-13.09-2.91-37.66,2V627.66s31.93-4.91,38.08,0"/><path class="cls-2" d="M326.84,664.51s31.93,2.45,38.08,0"/></g><g id="ribbon1"><path class="cls-2" d="M648.11,331s22.11-5.5,34.39,1.86v34.4s-17.2-4.92-34.39,0"/><path class="cls-2" d="M682.5,367.28s-24.56,5.54-34.39,4"/><line class="cls-2" x1="680.97" y1="332.06" x2="677.44" y2="366.19"/></g></svg>