<svg id="Layer_1" data-name="Layer 1" xmlns="http://www.w3.org/2000/svg" viewBox="0 0 133 100"><defs><style>.cls-1{fill:#333;}.cls-2{fill:#f2f2f2;}</style></defs><title>youtube-narrow</title><rect class="cls-1" x="-0.26" width="133.26" height="100"/><path class="cls-2" d="M127.41,24.48s-1.22-9-5-12.91C117.71,6.39,112.39,6.36,110,6.06,92.49,4.75,66.31,4.75,66.31,4.75h-.06s-26.19,0-43.65,1.32c-2.43.29-7.74.32-12.5,5.5C6.37,15.52,5.15,24.49,5.15,24.49A204.42,204.42,0,0,0,3.9,45.54V55.4A204.49,204.49,0,0,0,5.15,76.46s1.22,9,4.95,12.92c4.76,5.18,11,5,13.76,5.55,10,1,42.42,1.31,42.42,1.31s26.21,0,43.68-1.36c2.43-.3,7.75-.32,12.49-5.51,3.74-3.94,5-12.91,5-12.91a204.49,204.49,0,0,0,1.25-21.06V45.54A204.75,204.75,0,0,0,127.41,24.48ZM87.1,49.16,53.4,67.37V30.82l15.2,8.27Z"/></svg>