<svg id="Layer_1" data-name="Layer 1" xmlns="http://www.w3.org/2000/svg" viewBox="0 0 250 250"><defs><style>.cls-1{fill:#333;}.cls-2{fill:#f2f2f2;}</style></defs><title>youtube</title><rect class="cls-1" x="-0.17" y="0.09" width="250" height="250"/><path class="cls-2" d="M200.4,95.57s-1.51-11.2-6.18-16.12C188.3,73,181.66,73,178.63,72.57c-21.81-1.63-54.5-1.63-54.5-1.63h-.07s-32.7,0-54.49,1.64C66.53,73,59.9,73,54,79.45c-4.66,4.93-6.18,16.13-6.18,16.13a255.21,255.21,0,0,0-1.56,26.28v12.31a255.85,255.85,0,0,0,1.56,26.3S49.3,171.66,54,176.58c5.94,6.47,13.73,6.27,17.18,6.94,12.46,1.24,53,1.63,53,1.63s32.73-.06,54.54-1.69c3-.38,9.67-.41,15.59-6.88,4.67-4.93,6.18-16.12,6.18-16.12A253.93,253.93,0,0,0,202,134.17V121.86A253.93,253.93,0,0,0,200.4,95.57Zm-50.32,30.81L108,149.11V103.49l19,10.32Z"/></svg>