<svg xmlns="http://www.w3.org/2000/svg" viewBox="0 0 1000 1000"><defs><style>.cls-1,.cls-3{fill:#333;}.cls-2{fill:#fff;}.cls-3{font-size:66.48px;font-family:Megrim;}</style></defs><title>newlogo</title><g id="Layer_1" data-name="Layer 1"><circle class="cls-1" cx="500.02" cy="515.52" r="354"/></g><g id="Layer_2" data-name="Layer 2"><path class="cls-2" d="M514.5,826.54c1.29-1.57,17.89-2.54,45.64-8.75a341.1,341.1,0,0,0,48.75-15.31c2.29-.92,4.64-1.83,7-2.81l7.07-3.22,3.62-1.64c1.22-.54,2.44-1.09,3.64-1.73,2.4-1.24,4.85-2.49,7.33-3.75l3.74-1.91c1.24-.67,2.46-1.4,3.7-2.1l7.54-4.3c1.28-.7,2.53-1.49,3.77-2.29l3.78-2.39,3.83-2.42c1.28-.81,2.58-1.61,3.82-2.52,5-3.55,10.26-7,15.26-11l3.83-3c1.28-1,2.59-1.95,3.82-3l7.56-6.4,1.92-1.61,1.85-1.72,3.72-3.44c2.48-2.32,5.05-4.59,7.43-7.11l7.34-7.45,7.12-7.91c2.44-2.61,4.66-5.45,7-8.26s4.67-5.59,6.82-8.6S745.82,696,748,693l6.32-9.37a323.25,323.25,0,0,0,22.46-40.92q2.38-5.49,4.78-11c1.47-3.76,2.86-7.57,4.31-11.38.36-1,.74-1.91,1.07-2.88l.94-2.92c.63-1.95,1.27-3.91,1.9-5.87l1-2.94c.33-1,.65-2,.9-3,.54-2,1.09-4,1.63-6a308.22,308.22,0,0,0,9.2-50,313,313,0,0,0-8.11-105.87,307.09,307.09,0,0,0-43.83-96.22l-3.7-5.24L745,336.67l-.92-1.3-1-1.26-7.79-10-8.17-9.53c-1.32-1.61-2.77-3.09-4.19-4.6l-4.25-4.5a320.81,320.81,0,0,0-36-32.1,325.86,325.86,0,0,0-38.56-24.84l-9.8-5.14c-3.28-1.63-6.61-3.09-9.87-4.63-1.64-.75-3.25-1.55-4.9-2.25l-5-2-4.9-2c-1.64-.65-3.24-1.37-4.9-1.91a309.29,309.29,0,0,0-75.27-17.67c-5.89-.51-11.63-1.23-17.26-1.35l-8.32-.37c-1.37-.08-2.73-.1-4.08-.1l-4,0c-10.65,0-20.67.51-30,1.37s-17.94,2.07-25.81,3.4-15,2.89-21.32,4.38c-12.68,3-22.25,5.94-28.57,7.78s-9.42,2.54-9,1.7c.19-.42,1.27-1.19,3.19-2.3,1-.55,2.13-1.21,3.52-1.92s3-1.45,4.8-2.29a240,240,0,0,1,31.79-11.73,292.24,292.24,0,0,1,51.54-10.12c5.08-.53,10.34-1,15.77-1.25s11-.46,16.81-.36l8.78.06c3,.07,6,.31,9,.47s6.12.3,9.23.6l9.42,1,4.79.53c1.61.2,3.21.51,4.82.76l9.8,1.6c1.66.23,3.29.63,4.95,1l5,1.07,5,1.1c.84.19,1.7.34,2.53.57l2.52.68,10.2,2.75c1.73.43,3.42,1,5.12,1.56l5.15,1.67c6.94,2.09,13.75,4.93,20.78,7.56a346.64,346.64,0,0,1,41.56,20.73,336.16,336.16,0,0,1,40.13,28.42A307.33,307.33,0,0,1,744.18,308a324.19,324.19,0,0,1,31.75,43.4,317.17,317.17,0,0,1,41.32,216.92q-.6,3.35-1.19,6.68l-.6,3.33c-.19,1.11-.48,2.2-.72,3.3-1,4.37-2,8.74-3,13.06s-2.4,8.54-3.59,12.77c-.28,1.07-.63,2.11-1,3.15l-1,3.12c-.69,2.07-1.39,4.14-2.08,6.2a326.65,326.65,0,0,1-20.63,46.58l-6.1,10.73c-2.13,3.5-4.34,6.9-6.49,10.31s-4.5,6.66-6.75,9.93l-3.41,4.85c-1.16,1.6-2.4,3.13-3.58,4.68l-3.59,4.62c-1.19,1.53-2.34,3.08-3.62,4.53l-7.44,8.71c-1.2,1.47-2.56,2.79-3.82,4.17l-3.84,4.09c-1.28,1.35-2.53,2.72-3.83,4L727,741a312.31,312.31,0,0,1-64.58,48.61l-2,1.17-2,1.07-4,2.1c-2.67,1.38-5.27,2.79-7.89,4.1l-7.85,3.63c-2.59,1.18-5.1,2.43-7.68,3.41a308.58,308.58,0,0,1-29.22,10.59l-6.83,2c-2.24.65-4.42,1.31-6.61,1.79l-12.53,2.93c-8.08,1.45-15.39,2.91-22,3.57-3.31.38-6.41.83-9.33,1.06l-8.16.5c-2.51.13-4.81.3-6.91.32s-4,0-5.65-.07C517,827.61,513.84,827.2,514.5,826.54Z"/><ellipse class="cls-2" cx="301" cy="519.68" rx="8.97" ry="246.68"/><path class="cls-2" d="M519.48,776c-.82,1.17-10.69,2.56-28,2.74a311.8,311.8,0,0,1-31.25-1.44,247,247,0,0,1-40.69-7.22c-14.82-4-30.95-10-46.43-20.36a110.08,110.08,0,0,1-21.81-19,100.58,100.58,0,0,1-16.51-26.15,115.66,115.66,0,0,1-8.46-31.08,157.53,157.53,0,0,1-.65-33c1.78-22.15,7.36-44.24,14.93-65.85a477.43,477.43,0,0,1,26.64-60.77c9.8-18.94,20.17-36.59,30.54-53a953.19,953.19,0,0,1,59.5-83.38c18.05-22.64,33.47-40,44.4-51.37s17.41-16.76,17.78-15.32-5.3,9.55-15.39,23.35-24.59,33.32-41.65,57.67-36.67,53.57-56.19,87c-9.74,16.72-19.43,34.51-28.45,53.32a451.3,451.3,0,0,0-23.9,59.45c-6.5,20.75-10.8,41.54-11.26,61.42a145.06,145.06,0,0,0,.44,14.66,113.8,113.8,0,0,0,2.07,14A87.85,87.85,0,0,0,361.55,718a98.43,98.43,0,0,0,8.41,9.52,109.33,109.33,0,0,0,19.49,15c13.76,8.36,28.22,13.7,41.63,17.65a318.11,318.11,0,0,0,37.05,8.07c11,1.77,20.6,2.91,28.36,3.78l10.25,1.18c2.95.38,5.41.67,7.37,1C518,774.76,519.89,775.38,519.48,776Z"/><path class="cls-2" d="M519.28,648c-.32-.14-.64-.65-1-1.51s-.63-2-1.06-3.55a110,110,0,0,0-3.85-12.34,71.45,71.45,0,0,0-9.23-17,66.86,66.86,0,0,0-18-16.87,62.58,62.58,0,0,0-12.66-6.2,61.7,61.7,0,0,0-14.7-3.38,62.77,62.77,0,0,0-32.12,5A61.57,61.57,0,0,0,400,615.31a60.87,60.87,0,0,0,4,71,61.75,61.75,0,0,0,28.74,19.79,65.46,65.46,0,0,0,8.11,2A62.85,62.85,0,0,0,449,709a62.66,62.66,0,0,0,29.55-5.77,64.45,64.45,0,0,0,11.71-7A67.33,67.33,0,0,0,506.3,679a79.26,79.26,0,0,0,4.75-8.59,80.16,80.16,0,0,0,3.08-7.71c3.17-9.49,3.77-15.12,5.15-14.55.3.14.6.65.87,1.54a17.81,17.81,0,0,1,.71,3.79,49,49,0,0,1-.71,13.93,65.31,65.31,0,0,1-7.52,20.54,72.68,72.68,0,0,1-33.93,30.5,73.37,73.37,0,0,1-17.86,5.27,74.85,74.85,0,0,1-20,.57,75.76,75.76,0,0,1-20.65-5.13,76.59,76.59,0,0,1-35-28.7,76.33,76.33,0,0,1-10-22.06,80.45,80.45,0,0,1-2.31-12.21,83.47,83.47,0,0,1-.29-12.56A76.66,76.66,0,0,1,428,574.23a80.34,80.34,0,0,1,10.4-2.21,76.44,76.44,0,0,1,10.28-.7A74.39,74.39,0,0,1,468,573.8a73.74,73.74,0,0,1,30.32,16.29,69.75,69.75,0,0,1,20.74,32.73,61.63,61.63,0,0,1,1.86,9.1,46.11,46.11,0,0,1,0,12.42C520.48,647.06,519.9,648.3,519.28,648Z"/><circle class="cls-2" cx="597.09" cy="535.08" r="37.01"/><circle class="cls-2" cx="695.54" cy="456.53" r="23.46"/></g><g id="Layer_3" data-name="Layer 3"><text class="cls-3" transform="translate(527.75 132.18) rotate(6.88)">K</text><text class="cls-3" transform="translate(564.51 136.61) rotate(12.24)">A</text><text class="cls-3" transform="matrix(0.96, 0.28, -0.28, 0.96, 599.2, 144.46)">I</text><text class="cls-3" transform="translate(613.18 148.11) rotate(19.67)">L</text><text class="cls-3" transform="translate(645.67 159.98) rotate(23.68)"> </text><text class="cls-3" transform="translate(663.02 167.21) rotate(27.83)">S</text><text class="cls-3" transform="translate(695.1 184.15) rotate(33.11)">T</text><text class="cls-3" transform="matrix(0.78, 0.63, -0.63, 0.78, 723.84, 202.6)">U</text><text class="cls-3" transform="translate(756.4 228.79) rotate(44.71)">D</text><text class="cls-3" transform="translate(783.59 256.25) rotate(48.64)">I</text><text class="cls-3" transform="matrix(0.61, 0.8, -0.8, 0.61, 793.46, 266.72)">O</text></g></svg>